<svg xmlns="http://www.w3.org/2000/svg" width="662" height="532" viewBox="0 0 662 532">
<g>
<path d="M 194.75 484.45 C190.44,489.35 183.56,488.57 179.99,482.78 C178.05,479.65 177.97,478.14 178.23,448.83 L 178.50 418.16 L 180.92 415.58 C182.88,413.50 184.28,413.00 188.19,413.00 C188.32,413.00 188.44,413.00 188.56,413.00 C189.72,413.00 190.61,413.00 191.45,413.22 C194.38,414.01 196.56,417.62 206.74,433.92 C211.01,440.75 214.95,446.49 215.50,446.67 C216.05,446.85 220.33,440.83 225.00,433.28 C236.69,414.41 238.00,413.00 243.95,413.00 C247.50,413.00 249.17,413.53 250.60,415.10 C252.39,417.08 252.50,419.15 252.50,449.69 L 252.50 482.16 L 249.23 485.08 C245.10,488.77 241.90,488.78 237.77,485.09 L 234.50 482.17 L 233.50 452.50 L 228.31 461.04 C222.52,470.56 220.70,472.54 216.87,473.50 C213.27,474.40 208.42,470.01 203.06,460.99 C200.78,457.15 198.48,454.00 197.96,454.00 C197.39,454.00 197.00,459.75 197.00,467.94 C197.00,480.98 196.85,482.05 194.75,484.45 ZM 356.60 484.60 C354.41,486.79 352.24,488.00 350.50,488.00 C348.76,488.00 346.59,486.79 344.40,484.60 L 341.00 481.20 L 341.00 451.15 C341.00,431.25 341.38,420.27 342.11,418.66 C344.10,414.28 346.47,413.80 364.10,414.17 C378.56,414.48 380.97,414.78 384.50,416.67 C402.56,426.36 402.04,451.47 383.60,460.49 C379.51,462.50 376.10,463.25 369.12,463.70 L 360.00 464.30 L 360.00 472.75 C360.00,481.03 359.93,481.27 356.60,484.60 ZM 277.79 486.43 C273.96,489.12 269.38,488.04 265.77,483.62 C263.06,480.29 263.61,477.28 269.59,462.93 C272.66,455.54 278.10,442.30 281.66,433.50 C285.23,424.70 289.10,416.49 290.25,415.25 C291.85,413.54 293.46,413.00 297.00,413.00 C302.07,413.00 304.46,414.81 306.91,420.50 C315.42,440.32 330.00,477.46 330.00,479.32 C330.00,485.38 321.63,489.96 316.60,486.66 C315.28,485.80 313.37,483.28 312.35,481.07 L 310.50 477.05 L 297.27 477.03 L 284.04 477.00 L 282.03 480.93 C280.93,483.10 279.02,485.57 277.79,486.43 ZM 453.50 486.64 C447.39,488.27 443.32,488.24 435.50,486.51 C406.00,479.99 395.03,444.88 415.95,423.95 C423.75,416.15 430.22,413.57 443.00,413.17 C456.23,412.75 462.81,414.88 470.13,421.94 C474.25,425.91 475.00,427.21 475.00,430.36 C475.00,432.99 474.27,434.82 472.55,436.55 C469.00,440.09 464.68,439.79 459.60,435.66 C453.43,430.62 451.74,430.00 444.32,430.02 C435.00,430.04 430.46,432.60 426.75,439.93 C422.51,448.30 423.41,456.98 429.20,463.58 C437.19,472.68 448.44,473.23 458.36,465.02 C464.26,460.14 468.73,459.64 472.55,463.45 C476.34,467.24 475.81,471.16 470.79,476.61 C466.13,481.67 461.02,484.63 453.50,486.64 ZM 438.24 117.01 C431.20,119.65 424.82,119.50 417.59,116.52 C410.38,113.56 404.77,108.26 401.28,101.15 C397.75,93.92 397.59,83.35 400.92,76.88 C406.57,65.88 416.33,59.98 428.79,60.02 C440.16,60.06 448.69,65.19 454.03,75.22 C456.85,80.49 457.33,82.42 457.36,88.45 C457.38,93.65 456.80,96.81 455.15,100.50 C452.02,107.49 444.76,114.57 438.24,117.01 ZM 360.67 447.33 C361.99,448.66 370.58,447.96 373.95,446.25 C377.74,444.33 379.41,440.41 378.42,435.75 C377.52,431.51 374.48,430.00 366.78,430.00 L 360.00 430.00 L 360.00 438.33 C360.00,442.92 360.30,446.97 360.67,447.33 ZM 289.99 460.75 C290.00,461.63 292.07,462.00 297.00,462.00 C300.85,462.00 304.00,461.69 304.00,461.30 C304.00,459.77 297.54,441.00 297.01,441.00 C296.34,441.00 289.97,458.93 289.99,460.75 Z" fill="rgb(71,23,187)"/>
<path d="M 306.00 383.97 C301.88,384.50 298.05,384.89 297.50,384.84 C281.32,383.21 271.54,380.09 261.83,373.45 C254.14,368.20 244.16,358.00 238.88,349.99 C232.52,340.37 224.46,323.92 222.46,316.50 C214.32,286.36 212.59,273.25 213.26,246.59 C213.82,223.86 215.76,211.53 221.55,193.86 C231.37,163.92 247.86,144.79 270.63,136.95 C278.17,134.36 292.20,134.37 307.15,136.98 C321.70,139.52 331.80,142.39 349.36,148.96 C362.89,154.03 380.34,162.29 392.14,169.21 C397.11,172.12 401.94,174.95 402.89,175.50 C403.83,176.05 409.07,179.65 414.53,183.50 C423.91,190.11 448.00,212.21 448.00,214.20 C448.00,214.71 449.61,217.23 451.59,219.81 C456.71,226.51 462.89,240.00 464.67,248.34 C467.36,261.05 464.66,274.66 456.88,287.60 C441.48,313.18 407.23,340.38 361.51,363.33 C354.36,366.92 348.37,369.71 348.20,369.53 C348.02,369.36 348.57,366.80 349.41,363.86 C351.29,357.27 353.44,340.94 355.98,314.00 C357.05,302.73 358.42,291.77 359.03,289.65 C361.18,282.26 366.64,277.87 384.66,269.07 C400.67,261.25 415.69,252.31 419.94,248.06 C423.00,245.00 422.73,239.52 419.40,237.34 C417.10,235.84 416.10,235.78 410.65,236.88 C407.27,237.56 400.00,239.71 394.50,241.65 C364.43,252.28 358.12,253.59 344.97,251.94 C328.28,249.84 318.35,242.71 305.46,223.56 C295.46,208.70 292.83,206.00 288.37,206.00 C283.45,206.00 279.00,210.49 279.00,215.45 C279.00,219.67 283.01,228.06 290.62,239.79 C299.82,253.95 300.61,257.98 297.02,272.25 C293.10,287.78 287.84,298.47 274.48,318.00 C265.17,331.61 264.00,334.00 264.00,339.36 C264.00,343.11 264.49,344.23 267.08,346.41 C271.04,349.75 273.64,349.68 279.08,346.07 C283.63,343.05 297.28,329.44 307.18,318.02 C312.44,311.97 313.08,311.55 317.01,311.55 C320.42,311.55 321.69,312.10 323.75,314.50 L 326.29 317.45 L 325.63 339.47 C325.02,359.60 325.31,365.06 327.53,375.58 L 328.18 378.65 L 320.84 380.83 C316.80,382.02 310.12,383.44 306.00,383.97 ZM 339.50 243.61 C344.18,245.66 352.44,245.32 357.29,242.89 C366.27,238.38 370.41,231.95 370.41,222.50 C370.41,213.03 365.07,205.03 356.28,201.35 C348.37,198.03 336.53,201.21 330.28,208.33 C320.69,219.26 325.45,237.47 339.50,243.61 Z" fill="rgb(108,44,170)"/>
<path d="M 446.91 208.73 C447.63,213.33 448.71,215.98 451.31,219.45 C449.47,217.00 448.00,214.68 448.00,214.20 C448.00,212.21 423.91,190.11 414.53,183.50 C409.07,179.65 403.83,176.05 402.89,175.50 C401.94,174.95 397.11,172.12 392.14,169.21 C380.34,162.29 362.89,154.03 349.36,148.96 C331.80,142.39 321.70,139.52 307.15,136.98 C292.20,134.37 278.17,134.36 270.63,136.95 C247.86,144.79 231.37,163.92 221.55,193.86 C215.76,211.53 213.82,223.86 213.26,246.59 C212.59,273.25 214.32,286.36 222.46,316.50 C222.97,318.41 223.89,320.91 225.07,323.74 C224.51,323.05 223.75,322.23 222.91,321.44 C213.83,312.81 201.95,294.25 196.55,280.25 C177.52,230.99 187.85,178.00 223.70,140.92 C249.26,114.50 281.57,100.73 318.00,100.72 C353.76,100.71 386.99,114.76 411.76,140.35 C430.27,159.49 443.12,184.49 446.91,208.73 ZM 204.30 125.38 C198.24,128.45 189.25,127.03 183.64,122.12 C177.14,116.43 176.15,104.13 181.63,97.27 C183.29,95.19 186.19,92.71 188.07,91.75 C191.92,89.79 199.44,89.46 203.68,91.07 C213.08,94.63 217.82,107.56 213.11,116.79 C210.94,121.03 208.84,123.08 204.30,125.38 ZM 448.56 385.82 C444.95,388.29 437.04,389.44 432.87,388.09 C421.30,384.35 416.55,370.33 423.35,360.04 C429.06,351.42 441.80,349.29 449.73,355.63 C459.94,363.79 459.37,378.41 448.56,385.82 ZM 267.66 61.90 C265.50,63.23 262.59,64.00 259.67,64.00 C255.72,64.00 254.53,63.47 251.04,60.15 C247.32,56.61 247.00,55.89 247.00,51.06 C247.00,42.12 251.80,36.99 260.15,37.01 C265.68,37.03 268.85,38.65 271.72,42.91 C276.01,49.27 274.16,57.88 267.66,61.90 ZM 237.04 347.10 C237.66,348.11 238.28,349.08 238.88,349.99 C239.07,350.29 239.28,350.59 239.49,350.90 C239.18,350.45 238.87,350.00 238.58,349.56 C238.12,348.88 237.60,348.04 237.04,347.10 ZM 459.83 234.44 C462.04,239.39 463.83,244.42 464.67,248.34 C463.84,244.43 462.04,239.39 459.83,234.44 Z" fill="rgb(248,106,55)"/>
<path d="M 0.00 266.00 L 0.00 0.00 L 331.00 0.00 L 662.00 0.00 L 662.00 266.00 L 662.00 532.00 L 331.00 532.00 L 0.00 532.00 L 0.00 266.00 ZM 194.75 484.45 C196.85,482.05 197.00,480.98 197.00,467.94 C197.00,459.75 197.39,454.00 197.96,454.00 C198.48,454.00 200.78,457.15 203.06,460.99 C208.42,470.01 213.27,474.40 216.87,473.50 C220.70,472.54 222.52,470.56 228.31,461.04 L 233.50 452.50 L 234.00 467.34 L 234.50 482.17 L 237.77 485.09 C241.90,488.78 245.10,488.77 249.23,485.08 L 252.50 482.16 L 252.50 449.69 C252.50,419.15 252.39,417.08 250.60,415.10 C249.17,413.53 247.50,413.00 243.95,413.00 C238.00,413.00 236.69,414.41 225.00,433.28 C220.33,440.83 216.05,446.85 215.50,446.67 C214.95,446.49 211.01,440.75 206.74,433.92 C193.37,412.51 193.80,413.00 188.19,413.00 C184.28,413.00 182.88,413.50 180.92,415.58 L 178.50 418.16 L 178.23 448.83 C177.97,478.14 178.05,479.65 179.99,482.78 C183.56,488.57 190.44,489.35 194.75,484.45 ZM 277.79 486.43 C279.02,485.57 280.93,483.10 282.03,480.93 L 284.04 477.00 L 297.27 477.03 L 310.50 477.05 L 312.35 481.07 C313.37,483.28 315.28,485.80 316.60,486.66 C321.63,489.96 330.00,485.38 330.00,479.32 C330.00,477.46 315.42,440.32 306.91,420.50 C304.46,414.81 302.07,413.00 297.00,413.00 C293.46,413.00 291.85,413.54 290.25,415.25 C289.10,416.49 285.23,424.70 281.66,433.50 C278.10,442.30 272.66,455.54 269.59,462.93 C263.61,477.28 263.06,480.29 265.77,483.62 C269.38,488.04 273.96,489.12 277.79,486.43 ZM 356.60 484.60 C359.93,481.27 360.00,481.03 360.00,472.75 L 360.00 464.30 L 369.12 463.70 C376.10,463.25 379.51,462.50 383.60,460.49 C402.04,451.47 402.56,426.36 384.50,416.67 C380.97,414.78 378.56,414.48 364.10,414.17 C346.47,413.80 344.10,414.28 342.11,418.66 C341.38,420.27 341.00,431.25 341.00,451.15 L 341.00 481.20 L 344.40 484.60 C346.59,486.79 348.76,488.00 350.50,488.00 C352.24,488.00 354.41,486.79 356.60,484.60 ZM 453.50 486.64 C461.02,484.63 466.13,481.67 470.79,476.61 C475.81,471.16 476.34,467.24 472.55,463.45 C468.73,459.64 464.26,460.14 458.36,465.02 C448.44,473.23 437.19,472.68 429.20,463.58 C423.41,456.98 422.51,448.30 426.75,439.93 C430.46,432.60 435.00,430.04 444.32,430.02 C451.74,430.00 453.43,430.62 459.60,435.66 C464.68,439.79 469.00,440.09 472.55,436.55 C474.27,434.82 475.00,432.99 475.00,430.36 C475.00,427.21 474.25,425.91 470.13,421.94 C462.81,414.88 456.23,412.75 443.00,413.17 C430.22,413.57 423.75,416.15 415.95,423.95 C395.03,444.88 406.00,479.99 435.50,486.51 C443.32,488.24 447.39,488.27 453.50,486.64 ZM 448.56 385.82 C459.37,378.41 459.94,363.79 449.73,355.63 C441.80,349.29 429.06,351.42 423.35,360.04 C416.55,370.33 421.30,384.35 432.87,388.09 C437.04,389.44 444.95,388.29 448.56,385.82 ZM 306.00 383.97 C310.12,383.44 316.80,382.02 320.84,380.83 L 328.18 378.65 L 327.53 375.58 C325.31,365.06 325.02,359.60 325.63,339.47 L 326.29 317.45 L 323.75 314.50 C321.69,312.10 320.42,311.55 317.01,311.55 C313.08,311.55 312.44,311.97 307.18,318.02 C297.28,329.44 283.63,343.05 279.08,346.07 C273.64,349.68 271.04,349.75 267.08,346.41 C264.49,344.23 264.00,343.11 264.00,339.36 C264.00,334.00 265.17,331.61 274.48,318.00 C287.84,298.47 293.10,287.78 297.02,272.25 C300.61,257.98 299.82,253.95 290.62,239.79 C283.01,228.06 279.00,219.67 279.00,215.45 C279.00,210.49 283.45,206.00 288.37,206.00 C292.83,206.00 295.46,208.70 305.46,223.56 C318.35,242.71 328.28,249.84 344.97,251.94 C358.12,253.59 364.43,252.28 394.50,241.65 C400.00,239.71 407.27,237.56 410.65,236.88 C416.10,235.78 417.10,235.84 419.40,237.34 C422.73,239.52 423.00,245.00 419.94,248.06 C415.69,252.31 400.67,261.25 384.66,269.07 C366.64,277.87 361.18,282.26 359.03,289.65 C358.42,291.77 357.05,302.73 355.98,314.00 C353.44,340.94 351.29,357.27 349.41,363.86 C348.57,366.80 348.02,369.36 348.20,369.53 C348.37,369.71 354.36,366.92 361.51,363.33 C407.23,340.38 441.48,313.18 456.88,287.60 C464.66,274.66 467.36,261.05 464.67,248.34 C462.89,239.96 456.71,226.50 451.53,219.73 C448.77,216.12 447.65,213.46 446.91,208.73 C443.12,184.49 430.27,159.49 411.76,140.35 C386.99,114.76 353.76,100.71 318.00,100.72 C281.57,100.73 249.26,114.50 223.70,140.92 C187.85,178.00 177.52,230.99 196.55,280.25 C201.95,294.25 213.83,312.81 222.91,321.44 C224.61,323.05 226.00,324.76 226.00,325.23 C226.00,326.89 234.69,343.70 238.58,349.56 C244.16,357.99 254.02,368.12 261.83,373.45 C271.54,380.09 281.32,383.21 297.50,384.84 C298.05,384.89 301.88,384.50 306.00,383.97 ZM 204.30 125.38 C208.84,123.08 210.94,121.03 213.11,116.79 C217.82,107.56 213.08,94.63 203.68,91.07 C199.44,89.46 191.92,89.79 188.07,91.75 C186.19,92.71 183.29,95.19 181.63,97.27 C176.15,104.13 177.14,116.43 183.64,122.12 C189.25,127.03 198.24,128.45 204.30,125.38 ZM 438.24 117.01 C444.76,114.57 452.02,107.49 455.15,100.50 C456.80,96.81 457.38,93.65 457.36,88.45 C457.33,82.42 456.85,80.49 454.03,75.22 C448.69,65.19 440.16,60.06 428.79,60.02 C416.33,59.98 406.57,65.88 400.92,76.88 C397.59,83.35 397.75,93.92 401.28,101.15 C404.77,108.26 410.38,113.56 417.59,116.52 C424.82,119.50 431.20,119.65 438.24,117.01 ZM 267.66 61.90 C274.16,57.88 276.01,49.27 271.72,42.91 C268.85,38.65 265.68,37.03 260.15,37.01 C251.80,36.99 247.00,42.12 247.00,51.06 C247.00,55.89 247.32,56.61 251.04,60.15 C254.53,63.47 255.72,64.00 259.67,64.00 C262.59,64.00 265.50,63.23 267.66,61.90 ZM 289.99 460.75 C289.97,458.93 296.34,441.00 297.01,441.00 C297.54,441.00 304.00,459.77 304.00,461.30 C304.00,461.69 300.85,462.00 297.00,462.00 C292.07,462.00 290.00,461.63 289.99,460.75 ZM 360.67 447.33 C360.30,446.97 360.00,442.92 360.00,438.33 L 360.00 430.00 L 366.78 430.00 C374.48,430.00 377.52,431.51 378.42,435.75 C379.41,440.41 377.74,444.33 373.95,446.25 C370.58,447.96 361.99,448.66 360.67,447.33 ZM 339.50 243.61 C325.45,237.47 320.69,219.26 330.28,208.33 C336.53,201.21 348.37,198.03 356.28,201.35 C365.07,205.03 370.41,213.03 370.41,222.50 C370.41,231.95 366.27,238.38 357.29,242.89 C352.44,245.32 344.18,245.66 339.50,243.61 Z" fill="rgb(254,254,254)"/>
</g>
</svg>